<svg width="100" height="100" viewBox="0 0 100 100" fill="none" xmlns="http://www.w3.org/2000/svg">
<path d="M75.24 8H24.62C20.2129 8.00265 15.9871 9.75453 12.8708 12.8708C9.75453 15.9871 8.00265 20.2129 8 24.62V75.24C8.00265 79.6471 9.75453 83.8729 12.8708 86.9892C15.9871 90.1055 20.2129 91.8574 24.62 91.86H75.24C79.6471 91.8574 83.8729 90.1055 86.9892 86.9892C90.1055 83.8729 91.8574 79.6471 91.86 75.24V24.62C91.8574 20.2129 90.1055 15.9871 86.9892 12.8708C83.8729 9.75453 79.6471 8.00265 75.24 8V8ZM85.53 75.24C85.5274 77.9683 84.4424 80.584 82.5132 82.5132C80.584 84.4424 77.9683 85.5274 75.24 85.53H24.62C21.8917 85.5274 19.276 84.4424 17.3468 82.5132C15.4176 80.584 14.3326 77.9683 14.33 75.24V24.62C14.3326 21.8917 15.4176 19.276 17.3468 17.3468C19.276 15.4176 21.8917 14.3326 24.62 14.33H75.24C77.9683 14.3326 80.584 15.4176 82.5132 17.3468C84.4424 19.276 85.5274 21.8917 85.53 24.62V75.24Z" fill="#4E4840"/>
<path d="M52.16 32.5601L27.13 49.9301L52.16 67.3001V54.6801H72.72V45.1801H52.16V32.5601Z" fill="#4E4840"/>
</svg>
