<svg width="40" height="40" viewBox="0 0 40 40" fill="none" xmlns="http://www.w3.org/2000/svg">
<path d="M30.0959 3.2002H9.84795C8.08512 3.20126 6.39479 3.90201 5.14828 5.14852C3.90176 6.39503 3.20101 8.08536 3.19995 9.8482V30.0962C3.20101 31.859 3.90176 33.5494 5.14828 34.7959C6.39479 36.0424 8.08512 36.7431 9.84795 36.7442H30.0959C31.8588 36.7431 33.5491 36.0424 34.7956 34.7959C36.0421 33.5494 36.7429 31.859 36.7439 30.0962V9.8482C36.7429 8.08536 36.0421 6.39503 34.7956 5.14852C33.5491 3.90201 31.8588 3.20126 30.0959 3.2002V3.2002ZM34.2119 30.0962C34.2109 31.1875 33.7769 32.2338 33.0052 33.0055C32.2336 33.7771 31.1873 34.2111 30.0959 34.2122H9.84795C8.75665 34.2111 7.71034 33.7771 6.93867 33.0055C6.167 32.2338 5.73301 31.1875 5.73195 30.0962V9.8482C5.73301 8.75689 6.167 7.71058 6.93867 6.93891C7.71034 6.16724 8.75665 5.73325 9.84795 5.73219H30.0959C31.1873 5.73325 32.2336 6.16724 33.0052 6.93891C33.7769 7.71058 34.2109 8.75689 34.2119 9.8482V30.0962Z" fill="#4E4840"/>
<path d="M20.8641 13.0239L10.8521 19.9719L20.8641 26.9199V21.8719H29.0881V18.0719H20.8641V13.0239Z" fill="#4E4840"/>
</svg>
