<svg width="40" height="40" viewBox="0 0 40 40" fill="none" xmlns="http://www.w3.org/2000/svg">
<path d="M30.7592 22.0543V32.5495C30.7592 33.1879 30.242 33.7055 29.6036 33.7055H4.884C4.2456 33.7055 3.7284 33.1883 3.7284 32.5495V7.83069C3.7284 7.19229 4.2456 6.67509 4.884 6.67509H25.6324V2.94629H4.884C2.1856 2.94629 0 5.13229 0 7.83069V32.5499C0 35.2483 2.1856 37.4339 4.884 37.4339H29.6032C32.3016 37.4339 34.4872 35.2483 34.4872 32.5499V22.0543H30.7592Z" fill="#2A9D8F"/>
<path d="M18.4228 27.0134L9.40076 17.991L12.0372 15.3546L18.4228 21.7402L37.364 2.7998L40 5.4362L18.4228 27.0134Z" fill="#2A9D8F"/>
</svg>
