<svg width="250" height="250" viewBox="0 0 250 250" fill="none" xmlns="http://www.w3.org/2000/svg">
<path d="M109.243 172.718C108.993 172.718 108.744 172.688 108.502 172.628L72.4995 163.725V211.27L121.57 227V148.521L112.08 170.845C111.843 171.401 111.448 171.875 110.943 172.208C110.439 172.541 109.848 172.719 109.243 172.718Z" fill="white"/>
<path d="M141.872 166.017L188.305 154.535L178.089 136.475H129.31L141.872 166.017Z" fill="white"/>
<path d="M119.995 136.475H71.2163L61 154.535L107.433 166.017L119.995 136.475Z" fill="white"/>
<path d="M176.806 163.725L140.803 172.628C140.091 172.804 139.341 172.721 138.685 172.393C138.029 172.066 137.512 171.516 137.225 170.843L127.735 148.521V227L176.806 211.272V163.725Z" fill="white"/>
<path fill-rule="evenodd" clip-rule="evenodd" d="M99.9082 53.2059C104.467 45.9655 111.78 41.1638 120.384 39.7628C122.589 39.4038 128.317 39.5448 130.49 40.0114C136.304 41.2605 141.367 43.9808 145.417 48.0306C151.466 54.0795 154.489 62.2605 153.924 71.0497C153.574 76.4922 152.464 79.5228 148.194 86.7004C144.242 93.3415 143.165 95.3497 142.001 98.247C141.04 100.637 140.75 102.026 140.75 104.241V106.086H124.734H108.718L108.716 104.209C108.715 101.874 108.371 100.36 107.229 97.6569C106.229 95.2888 104.676 92.409 101.777 87.5447C99.0124 82.9051 97.7033 80.3747 96.968 78.2484C95.0052 72.5709 94.9748 65.5787 96.8874 59.7047C97.4892 57.8568 98.925 54.7679 99.9082 53.2059ZM144.268 54.8606C145.62 56.7791 146.707 58.9156 147.475 61.2233C148.36 63.8814 148.622 65.6609 148.621 69.0136C148.621 71.3953 148.553 72.2529 148.254 73.6456C147.535 76.9921 146.77 78.6619 143.247 84.5843C138.492 92.5793 136.602 96.4711 135.866 99.7862L135.653 100.747H128.405L128.406 95.1105L128.406 89.3964L129.151 89.09C130.151 88.679 131.233 87.8318 131.796 87.0199C132.049 86.6537 132.797 85.0866 133.456 83.5375C134.61 80.8291 134.656 80.6694 134.656 79.3861C134.656 79.2673 134.654 79.1531 134.65 79.0428C134.654 79.012 134.656 78.9863 134.656 78.9659C134.655 78.8698 134.644 78.7638 134.624 78.6501C134.539 77.7474 134.263 77.1154 133.655 76.4079C133.454 76.104 133.24 75.8371 133.031 75.6436L132.562 75.2086L133.076 67.2969C133.559 59.8698 133.576 59.2696 133.329 58.6784C133.222 58.4212 133.059 58.1214 132.918 57.912C132.463 57.1643 131.382 56.533 130.526 56.5345C129.75 56.5358 128.39 57.3819 128.004 58.104C127.966 58.174 127.926 58.329 127.885 58.5557C127.688 58.9191 127.557 59.3238 127.507 59.7527C127.456 60.1822 127.365 62.3228 127.305 64.5099C127.274 65.6308 127.252 66.4358 127.228 67.0113C127.174 67.7562 127.13 68.2208 127.108 68.2455C127.06 68.2993 126.68 68.2029 126.265 68.0308C125.332 67.6444 124.674 67.8396 123.533 68.8407C122.96 69.3446 122.736 69.507 122.51 69.4292C122.437 69.3787 122.362 69.3314 122.286 69.2873C122.262 69.267 122.236 69.2449 122.21 69.221C121.067 68.1914 118.86 68.524 118.186 69.8275C117.747 70.676 117.596 70.7196 116.906 70.1974C116.018 69.5261 114.634 69.7078 113.727 70.6144L112.918 71.4228L112.973 72.0451C112.96 72.1014 112.949 72.1586 112.94 72.2168C112.835 72.8633 113.14 75.546 113.421 76.4466C113.518 76.7568 113.862 77.3037 114.185 77.662C114.727 78.2616 114.85 78.6148 115.724 82.1031C116.247 84.1874 116.842 86.2189 117.046 86.6177C117.815 88.1209 119.592 89.4324 121.273 89.7372L121.898 89.8506V95.11V100.691H121.898V100.747H113.787L113.787 100.747H121.898V100.825H122.735H123.571L123.57 100.747H124.74H126.9L126.9 100.825H127.652H128.405L128.405 100.747H135.692L135.905 99.7874C136.641 96.4758 138.53 92.5882 143.283 84.6017C146.804 78.6857 147.567 77.0176 148.286 73.6747C148.585 72.2834 148.653 71.4267 148.654 69.0476C148.654 65.6985 148.392 63.9209 147.508 61.2657C146.734 58.9406 145.636 56.7897 144.268 54.8606ZM126.9 100.747L126.9 100.691H123.57L123.57 100.747H126.9Z" fill="white"/>
<path d="M109.151 116.737C108.884 115.689 108.617 112.096 108.775 111.686C108.865 111.45 110.455 111.428 124.771 111.466L140.667 111.509L140.626 113.589C140.554 117.233 139.743 119.303 137.513 121.538C136.426 122.627 135.886 123.022 134.745 123.564C132.408 124.674 132.273 124.689 124.734 124.689C117.195 124.689 117.06 124.674 114.724 123.564C112.077 122.307 109.882 119.618 109.151 116.737Z" fill="white"/>
<path d="M122.434 23.5015C122.713 22.9528 123.016 22.6498 123.56 22.3754C123.969 22.169 124.498 22 124.734 22C125.561 22 126.624 22.6939 127.034 23.5015C127.404 24.2309 127.414 24.3671 127.368 28.2863C127.323 32.0778 127.299 32.3486 126.971 32.7909C125.757 34.4284 123.712 34.4284 122.497 32.7909C122.169 32.3486 122.145 32.0778 122.101 28.2863C122.054 24.3671 122.064 24.2309 122.434 23.5015Z" fill="white"/>
<path d="M90.6009 39.2887C90.7367 38.5654 91.4204 37.7169 92.1091 37.4169C92.7301 37.1465 93.5226 37.1233 94.1504 37.3572C94.7689 37.5876 99.9737 42.7612 100.388 43.5571C101.528 45.7503 99.2031 48.1643 96.9703 47.1047C96.6753 46.9647 95.1885 45.5946 93.6664 44.0599C90.697 41.0663 90.3645 40.5488 90.6009 39.2887Z" fill="white"/>
<path d="M149.164 43.3885C149.5 42.7557 154.759 37.5651 155.265 37.3667C156.759 36.7818 158.579 37.7533 158.867 39.2887C159.102 40.542 158.765 41.072 155.886 43.9763C154.41 45.465 152.942 46.8062 152.625 46.9567C151.881 47.3099 150.64 47.2001 149.968 46.7218C149.018 46.0451 148.623 44.4088 149.164 43.3885Z" fill="white"/>
<path d="M78.3412 70.3248C78.7258 69.5301 79.2785 69.0712 80.1017 68.8628C80.379 68.7925 82.2949 68.7493 84.3595 68.7665C87.7804 68.795 88.1636 68.8274 88.6798 69.1315C89.5003 69.6147 89.9007 70.2429 89.9916 71.1885C90.0931 72.2454 89.6014 73.1914 88.6821 73.7081C88.0627 74.0563 87.8848 74.0678 83.8752 74.0197C79.9727 73.973 79.6829 73.9483 79.2515 73.6258C78.0709 72.7436 77.7439 71.5582 78.3412 70.3248Z" fill="white"/>
<path d="M160.786 73.7081C158.716 72.5444 159.147 69.4484 161.459 68.875C161.769 68.798 163.712 68.7493 165.776 68.7665C169.369 68.7965 169.556 68.8142 170.144 69.1796C170.968 69.6918 171.522 70.831 171.398 71.7562C171.297 72.5062 170.924 73.0978 170.217 73.6258C169.785 73.9483 169.496 73.973 165.593 74.0197C161.584 74.0678 161.406 74.0563 160.786 73.7081Z" fill="white"/>
</svg>
