<svg width="250" height="250" viewBox="0 0 250 250" fill="none" xmlns="http://www.w3.org/2000/svg">
<path fill-rule="evenodd" clip-rule="evenodd" d="M100.758 105.031C105.267 97.8678 112.503 93.1174 121.015 91.7314C123.196 91.3762 128.864 91.5157 131.013 91.9773C136.765 93.2131 141.774 95.9043 145.781 99.9109C151.765 105.895 154.756 113.989 154.197 122.684C153.85 128.069 152.752 131.067 148.528 138.168C144.618 144.738 143.553 146.725 142.401 149.591C141.45 151.955 141.164 153.329 141.164 155.521V157.346H125.318H109.473L109.472 155.489C109.47 153.18 109.13 151.681 108.001 149.007C107.011 146.664 105.475 143.815 102.607 139.003C99.8716 134.413 98.5764 131.91 97.849 129.806C95.9071 124.189 95.8771 117.272 97.7693 111.46C98.3647 109.632 99.7851 106.576 100.758 105.031ZM144.738 106.801C146.032 108.664 147.075 110.732 147.817 112.962C148.692 115.592 148.951 117.352 148.951 120.669C148.951 123.025 148.883 123.874 148.587 125.252C147.876 128.563 147.12 130.215 143.634 136.074C138.93 143.983 137.06 147.834 136.332 151.113L136.121 152.063H128.95L128.95 146.488L128.951 140.835L129.688 140.532C130.676 140.125 131.747 139.287 132.304 138.484C132.555 138.121 133.294 136.571 133.947 135.038C135.088 132.359 135.133 132.201 135.133 130.931C135.133 130.814 135.131 130.702 135.127 130.593C135.132 130.562 135.134 130.536 135.134 130.515C135.133 130.419 135.122 130.313 135.102 130.199C135.017 129.309 134.745 128.685 134.145 127.987C133.946 127.685 133.734 127.421 133.527 127.228L133.062 126.798L133.571 118.971C134.048 111.623 134.065 111.03 133.821 110.445C133.716 110.193 133.557 109.9 133.419 109.693C132.971 108.951 131.897 108.322 131.048 108.323C130.28 108.325 128.935 109.162 128.553 109.876C128.516 109.945 128.476 110.099 128.435 110.322C128.241 110.682 128.111 111.083 128.061 111.508C128.011 111.932 127.921 114.05 127.861 116.214C127.83 117.329 127.808 118.128 127.784 118.698C127.731 119.429 127.689 119.885 127.667 119.909C127.619 119.963 127.243 119.867 126.832 119.697C125.909 119.315 125.258 119.508 124.13 120.498C123.561 120.998 123.34 121.158 123.117 121.08C123.045 121.031 122.972 120.985 122.898 120.941C122.873 120.921 122.848 120.899 122.821 120.875C121.691 119.856 119.507 120.185 118.84 121.475C118.406 122.314 118.256 122.357 117.573 121.84C116.695 121.176 115.325 121.356 114.428 122.253L113.629 123.053L113.683 123.668C113.67 123.724 113.659 123.781 113.649 123.838C113.545 124.478 113.847 127.132 114.125 128.023C114.221 128.33 114.561 128.871 114.882 129.226C115.418 129.819 115.539 130.168 116.404 133.619C116.922 135.681 117.51 137.691 117.712 138.086C118.472 139.573 120.231 140.87 121.893 141.172L122.512 141.284V146.712V152.063H114.488L114.489 152.064H122.512V152.141H123.34H124.167L124.166 152.064H125.324H127.461L127.46 152.141H128.205H128.95L128.95 152.064H136.16L136.37 151.115C137.098 147.839 138.967 143.993 143.669 136.091C147.152 130.239 147.908 128.588 148.619 125.281C148.915 123.905 148.982 123.057 148.983 120.703C148.983 117.39 148.724 115.631 147.849 113.005C147.101 110.758 146.047 108.675 144.738 106.801ZM127.461 152.063L127.461 152.009H124.166L124.166 152.063H127.461Z" fill="white"/>
<path d="M109.901 167.882C109.638 166.845 109.373 163.29 109.529 162.884C109.618 162.651 111.191 162.629 125.355 162.667L141.081 162.709L141.04 164.767C140.969 168.372 140.167 170.42 137.961 172.631C136.885 173.709 136.351 174.1 135.222 174.636C132.91 175.734 132.777 175.749 125.318 175.749C117.86 175.749 117.726 175.734 115.415 174.636C112.796 173.393 110.624 170.732 109.901 167.882Z" fill="white"/>
<path d="M123.043 75.6418C123.319 75.0989 123.619 74.7991 124.157 74.5276C124.562 74.3235 125.085 74.1562 125.319 74.1562C126.137 74.1562 127.188 74.8427 127.594 75.6418C127.96 76.3634 127.97 76.4981 127.924 80.3754C127.88 84.1264 127.856 84.3943 127.532 84.8319C126.33 86.4519 124.307 86.4519 123.106 84.8319C122.781 84.3943 122.757 84.1264 122.713 80.3754C122.667 76.4981 122.677 76.3634 123.043 75.6418Z" fill="white"/>
<path d="M91.5499 91.2603C91.6843 90.5448 92.3606 89.7053 93.042 89.4085C93.6563 89.141 94.4403 89.118 95.0615 89.3495C95.6733 89.5774 100.823 94.6958 101.232 95.4831C102.361 97.6529 100.06 100.041 97.8512 98.9928C97.5594 98.8544 96.0884 97.4989 94.5826 95.9806C91.645 93.019 91.316 92.507 91.5499 91.2603Z" fill="white"/>
<path d="M149.488 95.3164C149.82 94.6903 155.023 89.5551 155.524 89.3589C157.001 88.7802 158.802 89.7413 159.087 91.2603C159.32 92.5002 158.986 93.0246 156.137 95.8979C154.677 97.3707 153.226 98.6976 152.912 98.8464C152.175 99.1959 150.948 99.0872 150.283 98.614C149.343 97.9446 148.953 96.3257 149.488 95.3164Z" fill="white"/>
<path d="M79.4211 121.965C79.8016 121.179 80.3484 120.725 81.1628 120.519C81.4371 120.449 83.3326 120.406 85.3752 120.423C88.7595 120.452 89.1386 120.484 89.6493 120.784C90.461 121.262 90.8572 121.884 90.9471 122.819C91.0475 123.865 90.561 124.801 89.6516 125.312C89.0387 125.657 88.8628 125.668 84.896 125.62C81.0352 125.574 80.7485 125.55 80.3217 125.231C79.1537 124.358 78.8302 123.185 79.4211 121.965Z" fill="white"/>
<path d="M160.986 125.312C158.937 124.161 159.363 121.098 161.651 120.531C161.958 120.455 163.88 120.406 165.922 120.423C169.477 120.453 169.662 120.471 170.243 120.832C171.058 121.339 171.607 122.466 171.484 123.381C171.384 124.123 171.015 124.708 170.316 125.231C169.889 125.55 169.602 125.574 165.741 125.62C161.774 125.668 161.599 125.657 160.986 125.312Z" fill="white"/>
<path d="M211.025 173.449C216.325 168.047 216.325 159.365 211.025 153.964C205.726 148.562 205.726 139.88 211.025 134.478C216.325 129.076 216.325 120.395 211.025 114.993C205.726 109.591 205.726 100.909 211.025 95.5075C216.325 90.1056 216.325 81.424 211.025 76.0221C205.726 70.6203 205.726 61.9387 211.025 56.5368C216.325 51.1349 216.325 42.4533 211.025 37.0514C205.726 31.6495 197.208 31.6495 191.909 37.0514C186.609 42.4533 178.091 42.4533 172.792 37.0514C167.492 31.6495 158.975 31.6495 153.675 37.0514C148.375 42.4533 139.858 42.4533 134.558 37.0514C129.259 31.6495 120.741 31.6495 115.442 37.0514C110.142 42.4533 101.625 42.4533 96.3249 37.0514C91.0252 31.6495 82.5079 31.6495 77.2082 37.0514C71.9085 42.4533 63.3912 42.4533 58.0915 37.0514C52.7918 31.6495 44.2744 31.6495 38.9748 37.0514C33.6751 42.4533 33.6751 51.1349 38.9748 56.5368C44.2744 61.9387 44.2744 70.6203 38.9748 76.0221C33.6751 81.424 33.6751 90.1056 38.9748 95.5075C44.2744 100.909 44.2744 109.591 38.9748 114.993C33.6751 120.395 33.6751 129.076 38.9748 134.478C44.2744 139.88 44.2744 148.562 38.9748 153.964C33.6751 159.365 33.6751 168.047 38.9748 173.449C44.2744 178.851 44.2744 187.532 38.9748 192.934C33.6751 198.336 33.6751 207.018 38.9748 212.42C44.2744 217.822 52.7918 217.822 58.0915 212.42C63.3912 207.018 71.9085 207.018 77.2082 212.42C82.5079 217.822 91.0252 217.822 96.3249 212.42C101.625 207.018 110.142 207.018 115.442 212.42C120.741 217.822 129.259 217.822 134.558 212.42C139.858 207.018 148.375 207.018 153.675 212.42C158.975 217.822 167.492 217.822 172.792 212.42C178.091 207.018 186.609 207.018 191.909 212.42C197.208 217.822 205.726 217.822 211.025 212.42C216.325 207.018 216.325 198.336 211.025 192.934C205.726 187.532 205.726 178.851 211.025 173.449ZM186.609 179.237C186.609 183.867 183.013 187.532 178.47 187.532H71.7192C67.1767 187.532 63.5804 183.867 63.5804 179.237V70.4273C63.5804 65.7971 67.1767 62.1316 71.7192 62.1316H178.47C183.013 62.1316 186.609 65.7971 186.609 70.4273V179.237Z" fill="white"/>
</svg>
