<svg width="250" height="250" viewBox="0 0 250 250" fill="none" xmlns="http://www.w3.org/2000/svg">
<path fill-rule="evenodd" clip-rule="evenodd" d="M214.841 95.4643L199.465 173.817C197.384 184.419 186.78 191.737 175.875 189.597L121.407 178.908L155.32 212.821H131.56V206.341H129.4V212.821H120.76V206.341H118.6V212.821H109.96V206.341H107.8V212.821H99.16V206.341H97V212.821H88.36V206.341H86.2V212.821H77.56V206.341H75.4V212.821H66.76V206.341H64.6V212.821H55.96V206.341H53.8V212.821H43V202.021H49.48V199.861H43V191.221H49.48V189.061H43V180.421H49.48V178.261H43V169.621H49.48V167.461H43V163.521L39.3 162.795C31.251 161.215 25.8195 153.167 27.3926 145.151L46.93 45.5944C48.5031 37.5781 56.5733 32.1796 64.6224 33.7592L181.464 56.6886L182.073 53.5856C184.154 42.9835 193.979 35.5125 204.466 37.0334C216.094 38.2411 223.925 49.177 221.692 60.5549L214.841 95.4643ZM46.4194 158.821L40.0553 157.572C34.8624 156.553 31.311 151.291 32.326 146.119L51.8633 46.5625C52.8782 41.3907 58.1549 37.861 63.3479 38.88L180.19 61.8095L159.688 166.279C159.434 167.572 160.479 169.12 161.777 169.375C163.075 169.629 164.576 168.85 164.881 167.298L164.982 166.781C165.681 160.473 173.695 153.989 182.263 155.671C189.793 157.148 194.959 163.802 194.317 171.195L193.708 174.298C191.508 181.386 184.16 185.852 176.63 184.374L114.724 172.225L104.699 162.199L144.919 170.092C146.476 170.398 147.718 169.568 147.972 168.275L167.408 69.2353C167.712 67.6838 166.876 66.4456 165.319 66.1399L65.8733 46.6244C64.3155 46.3187 63.0739 47.1492 62.7694 48.7007L51.0284 108.529L43 100.501V124.261H47.9412L47.5173 126.421H43V135.061H45.8218L45.3979 137.221H43V145.861H43.7023L43.3843 147.481C43.3481 147.666 43.328 147.846 43.3233 148.021H43V156.661H49.48V158.821H46.4194ZM64.6 167.76V191.221H101.32L81.096 170.997L64.6 167.76ZM74.4137 164.315L64.6 162.389V154.501L74.4137 164.315ZM49.3649 145.861L49.3444 145.966L49.48 145.992V145.861H49.3649ZM65.6802 123.181L62.2659 119.767L66.1988 120.539L65.6802 123.181ZM69.963 127.464L71.1321 121.507L82.5566 123.749L80.3237 135.127L76.967 134.468L69.963 127.464ZM94.3075 151.808L95.9263 143.56L84.5018 141.318L84.3894 141.89L94.3075 151.808ZM216.499 59.5358C218.123 51.261 212.432 43.1619 203.762 41.9976C196.13 41.0371 188.839 46.5884 187.266 54.6047L167.729 154.161C172.125 150.996 177.825 149.429 183.538 150.55C189.25 151.671 193.986 155.017 196.86 159.609C198.013 153.735 197.663 155.405 197.262 157.321L197.262 157.321C196.251 162.154 194.911 168.559 216.499 59.5358ZM119.039 113.721L107.615 111.479L105.382 122.857L116.806 125.099L119.039 113.721ZM121.999 126.118L133.424 128.36L135.657 116.982L124.232 114.74L121.999 126.118ZM104.367 128.029L102.134 139.407L113.559 141.649L115.792 130.271L104.367 128.029ZM99.1741 127.01L87.7495 124.768L85.5167 136.146L96.9412 138.388L99.1741 127.01ZM100.189 121.838L102.422 110.46L90.9973 108.218L88.7645 119.596L100.189 121.838ZM85.8043 107.199L74.3798 104.957L72.147 116.335L83.5715 118.577L85.8043 107.199ZM69.4465 103.989L58.022 101.747L55.7892 113.125L67.2137 115.367L69.4465 103.989ZM70.4614 98.8173L72.6943 87.4394L61.2698 85.1974L59.0369 96.5753L70.4614 98.8173ZM75.6544 99.8363L86.8193 102.027L89.0521 90.6495L77.6276 88.4075L75.3948 99.7854L75.6544 99.8363ZM92.0122 103.046L103.437 105.288L105.67 93.9106L94.2451 91.6686L92.0122 103.046ZM106.685 88.7388L108.917 77.3609L97.4928 75.1189L95.26 86.4968L106.685 88.7388ZM111.877 89.7579L123.302 91.9999L125.535 80.622L114.11 78.38L111.877 89.7579ZM110.863 94.9296L108.63 106.308L120.054 108.55L122.287 97.1716L110.863 94.9296ZM125.247 109.569L136.672 111.811L138.905 100.433L127.48 98.1907L125.247 109.569ZM141.865 112.83L153.289 115.072L155.522 103.694L144.098 101.452L141.865 112.83ZM140.85 118.001L138.617 129.379L150.041 131.621L152.274 120.243L140.85 118.001ZM137.602 134.551L135.369 145.929L146.794 148.171L149.026 136.793L137.602 134.551ZM132.409 133.532L120.984 131.29L118.752 142.668L130.176 144.91L132.409 133.532ZM117.737 147.84L115.504 159.218L126.928 161.46L129.161 150.082L117.737 147.84ZM112.544 146.821L101.119 144.579L98.8864 155.956L110.311 158.198L112.544 146.821ZM62.2847 80.0256L73.7092 82.2676L75.942 70.8897L64.5175 68.6477L62.2847 80.0256ZM78.9022 83.2867L90.067 85.4777L92.2999 74.0998L80.8754 71.8578L78.6425 83.2357L78.9022 83.2867ZM93.2641 69.1867L95.4969 57.8088L84.0724 55.5668L81.8395 66.9447L93.2641 69.1867ZM98.457 70.2057L109.882 72.4477L112.114 61.0698L100.69 58.8278L98.457 70.2057ZM115.074 73.4668L126.499 75.7088L128.732 64.3309L117.307 62.0889L115.074 73.4668ZM131.692 76.7279L143.116 78.9699L145.349 67.592L133.925 65.35L131.692 76.7279ZM130.677 81.8996L128.495 93.0189L139.919 95.2609L142.152 83.883L130.728 81.6411L130.677 81.8996ZM145.112 96.28L156.537 98.522L158.77 87.1441L147.345 84.9021L145.112 96.28ZM145.519 153.292L134.095 151.05L131.862 162.428L143.286 164.67L145.519 153.292ZM65.4817 63.7345L76.9062 65.9765L79.1391 54.5986L67.7145 52.3567L65.4817 63.7345ZM150.542 68.6111L148.309 79.989L159.734 82.2309L161.967 70.8531L150.542 68.6111Z" fill="white"/>
</svg>
