<svg width="250" height="250" viewBox="0 0 250 250" fill="none" xmlns="http://www.w3.org/2000/svg">
<path fill-rule="evenodd" clip-rule="evenodd" d="M125.818 53.2287C129.285 53.9646 133.085 51.4509 133.085 47.3442V30.136L133.085 30.1146V25H172.862C183.908 25 192.862 33.9543 192.862 45V88.6853C184.552 92.9721 176.848 98.1368 173.301 101.685L136.595 138.42L104.566 137.708C103.68 137.664 102.81 138.034 102.177 138.664L94.5777 146.263C94.4669 146.374 94.2587 146.568 93.992 146.817L93.9918 146.817C92.7825 147.944 90.3702 150.191 90.3715 150.903C89.7272 151.863 90.3293 152.827 90.8383 153.391H51C39.9543 153.391 31 144.436 31 133.391V45C31 33.9543 39.9543 25 51 25H91.1211V34.983V44.983H91.1213V47.3442V47.3453C91.122 51.3566 94.7487 53.8477 98.1477 53.2745C99.3348 53.0743 100.494 52.5005 101.461 51.4871L103.859 48.9751L107.09 53.2664C108.034 54.5212 109.351 55.2832 110.747 55.5495C111.537 55.7003 112.352 55.6922 113.14 55.5248C114.452 55.2461 115.688 54.5259 116.602 53.3617L120.183 48.8024L122.745 51.4871C123.647 52.4319 124.716 52.9947 125.818 53.2287ZM101.121 39.3572V25H123.085V30.1146L123.085 30.136V30.136V39.233C122.001 38.9041 120.858 38.7582 119.701 38.814C116.804 38.9538 114.11 40.3447 112.318 42.6258L111.95 43.0951L111.849 42.961C110.083 40.615 107.375 39.1637 104.443 38.9922C103.311 38.9259 102.189 39.0533 101.121 39.3572ZM42.1629 40.7366C42.1629 38.9432 43.6167 37.4894 45.4101 37.4894H80.8799C82.6733 37.4894 84.1271 38.9432 84.1271 40.7366C84.1271 42.53 82.6733 43.9838 80.8799 43.9838H45.4101C43.6167 43.9838 42.1629 42.53 42.1629 40.7366ZM45.4101 61.4689C43.6167 61.4689 42.1629 62.9228 42.1629 64.7162C42.1629 66.5096 43.6167 67.9634 45.4101 67.9634H80.8799C82.6733 67.9634 84.1271 66.5096 84.1271 64.7162C84.1271 62.9228 82.6733 61.4689 80.8799 61.4689H45.4101ZM42.1629 76.706C42.1629 74.9126 43.6167 73.4587 45.4101 73.4587H80.8799C82.6733 73.4587 84.1271 74.9126 84.1271 76.706C84.1271 78.4993 82.6733 79.9532 80.8799 79.9532H45.4101C43.6167 79.9532 42.1629 78.4993 42.1629 76.706ZM45.4101 49.4791C43.6167 49.4791 42.1629 50.933 42.1629 52.7264C42.1629 54.5198 43.6167 55.9736 45.4101 55.9736H80.8799C82.6733 55.9736 84.1271 54.5198 84.1271 52.7264C84.1271 50.933 82.6733 49.4791 80.8799 49.4791H45.4101ZM215.887 99.6985C214.055 97.8677 211.284 96.938 207.663 96.938C197.532 96.938 181.455 104.33 175.403 110.383L139.976 145.829L112.727 145.224C111.973 145.187 111.233 145.501 110.694 146.038L104.229 152.503C103.707 153.025 103.412 153.735 103.413 154.474C103.413 155.216 103.707 155.926 104.229 156.45L116.795 169.01L109.072 176.739C108.551 177.261 108.257 177.971 108.257 178.712C108.257 179.453 108.551 180.161 109.072 180.685L134.933 206.541C136.025 207.631 137.787 207.631 138.875 206.541L146.599 198.811L159.164 211.38C159.709 211.924 160.422 212.195 161.134 212.195C161.848 212.195 162.56 211.925 163.104 211.382L169.574 204.918C170.111 204.38 170.407 203.642 170.389 202.881L169.777 175.631L205.21 140.188C209.027 136.37 213.42 128.484 216.141 120.563C218.546 113.566 220.453 104.264 215.887 99.6985ZM154.029 165.517L137.61 181.943C136.522 183.033 134.76 183.033 133.669 181.943C132.582 180.851 132.582 179.088 133.67 177.997L150.089 161.576C151.178 160.486 152.943 160.486 154.03 161.576C155.121 162.664 155.118 164.428 154.029 165.517ZM172.752 150.738C170.573 152.914 167.047 152.914 164.864 150.735C162.689 148.558 162.687 145.03 164.864 142.852C167.043 140.674 170.57 140.673 172.752 142.849C174.926 145.027 174.93 148.558 172.752 150.738ZM184.558 138.928C182.381 141.109 178.849 141.103 176.669 138.928C174.493 136.752 174.49 133.219 176.669 131.043C178.849 128.863 182.379 128.863 184.555 131.04C186.736 133.222 186.736 136.749 184.558 138.928ZM196.358 127.121C194.184 129.301 190.653 129.301 188.478 127.121C186.297 124.943 186.296 121.412 188.472 119.234C190.65 117.055 194.181 117.052 196.358 119.233C198.543 121.411 198.543 124.942 196.358 127.121ZM102.855 191.389C103.943 190.302 105.708 190.302 106.798 191.392C107.885 192.483 107.885 194.249 106.797 195.336L94.3829 207.756C93.2947 208.846 91.5268 208.843 90.44 207.756C89.3489 206.663 89.3518 204.898 90.44 203.809L102.855 191.389ZM115.515 200.11C114.425 199.021 112.66 199.018 111.572 200.107L99.158 212.521C98.0669 213.613 98.0655 215.378 99.1566 216.468C100.243 217.559 102.01 217.559 103.098 216.471L115.513 204.056C116.603 202.966 116.604 201.199 115.515 200.11ZM120.294 208.822L107.878 221.237C106.788 222.325 106.787 224.088 107.875 225.179C108.962 226.272 110.727 226.272 111.815 225.183L124.233 212.769C125.321 211.679 125.323 209.916 124.234 208.825C123.147 207.735 121.382 207.733 120.294 208.822Z" fill="white"/>
</svg>
