<svg width="300" height="300" viewBox="0 0 300 300" fill="none" xmlns="http://www.w3.org/2000/svg">
<path d="M187.276 63.9447L112.146 63.9447C111.733 63.943 111.324 64.023 110.943 64.1801C110.562 64.3372 110.215 64.5683 109.923 64.86C109.632 65.1517 109.4 65.4983 109.243 65.8797C109.086 66.2612 109.006 66.67 109.008 67.0825L109.141 92.0964C109.142 92.5077 109.225 92.9146 109.384 93.2938C109.544 93.673 109.776 94.017 110.069 94.3061C110.662 94.883 111.451 95.2145 112.278 95.2342L115.394 95.2121L115.394 148.245L113.582 148.245C111.285 148.26 109.018 148.767 106.933 149.732C104.848 150.696 102.994 152.095 101.495 153.836C98.4146 157.444 96.736 162.04 96.7662 166.785L96.7662 176.242C96.7645 176.655 96.8445 177.063 97.0016 177.445C97.1587 177.826 97.3897 178.173 97.6814 178.465C97.9731 178.756 98.3197 178.987 98.7012 179.144C99.0826 179.302 99.4914 179.382 99.904 179.38L199.783 179.601C200.194 179.599 200.601 179.516 200.98 179.357C201.359 179.198 201.703 178.965 201.992 178.673C202.569 178.08 202.901 177.29 202.921 176.463V167.006C202.951 162.261 201.272 157.665 198.192 154.057C196.693 152.316 194.838 150.917 192.754 149.952C190.669 148.988 188.402 148.481 186.105 148.466H184.293L184.293 95.4331L187.408 95.4552C188.236 95.4355 189.025 95.104 189.618 94.5271C189.911 94.238 190.143 93.8939 190.302 93.5147C190.462 93.1355 190.545 92.7287 190.546 92.3174V67.3035C190.58 66.8613 190.519 66.4171 190.368 66.0003C190.217 65.5834 189.979 65.2035 189.669 64.8858C189.36 64.5682 188.986 64.3199 188.574 64.1577C188.161 63.9954 187.719 63.9228 187.276 63.9447V63.9447Z" fill="#4E4840"/>
<path d="M129 185.452L146.357 247.879C146.356 248.292 146.436 248.701 146.593 249.082C146.75 249.464 146.981 249.81 147.273 250.102C147.564 250.393 147.911 250.625 148.292 250.782C148.674 250.939 149.083 251.019 149.495 251.017C149.906 251.015 150.313 250.933 150.693 250.773C151.072 250.614 151.416 250.381 151.705 250.089C152.03 249.815 152.295 249.478 152.485 249.098C152.675 248.718 152.785 248.303 152.81 247.879L166 185.452L129 185.452Z" fill="#4E4840"/>
</svg>
