<svg width="3400" height="512" viewBox="0 0 3400 512" fill="none" xmlns="http://www.w3.org/2000/svg">
<g clip-path="url(#clip0)">
<rect x="68.5" y="67.5" width="377" height="377" rx="53.5" fill="#2A9D8F" stroke="#2A9D8F" stroke-width="3"/>
<path d="M327.337 315L372 353L327.337 395V378H152.807V339.362L252.433 245.528C263.011 235.47 270.144 226.884 273.834 219.77C277.524 212.41 279.369 205.173 279.369 198.059C279.369 187.756 275.802 179.905 268.668 174.508C261.781 168.866 251.572 166.045 238.043 166.045C226.727 166.045 216.519 168.253 207.417 172.669C198.316 176.839 190.69 183.217 184.54 191.803L175.503 161.67L141 163.837C151.086 148.873 164.984 137.22 182.695 128.879C200.406 120.293 220.701 116 243.578 116C262.765 116 279.492 119.189 293.759 125.567C308.273 131.7 319.465 140.532 327.337 152.062C335.455 163.346 339.513 176.716 339.513 192.171C339.513 206.154 336.562 219.279 330.658 231.545C324.754 243.811 313.316 257.794 296.342 273.494L236.936 329.427H327.337V315Z" fill="#F7F7F9"/>
<path d="M673.96 133C696.28 133 715.6 136.72 731.92 144.16C748.48 151.6 761.2 162.16 770.08 175.84C778.96 189.52 783.4 205.72 783.4 224.44C783.4 242.92 778.96 259.12 770.08 273.04C761.2 286.72 748.48 297.28 731.92 304.72C715.6 311.92 696.28 315.52 673.96 315.52H623.2V385H564.88V133H673.96ZM670.72 268C688.24 268 701.56 264.28 710.68 256.84C719.8 249.16 724.36 238.36 724.36 224.44C724.36 210.28 719.8 199.48 710.68 192.04C701.56 184.36 688.24 180.52 670.72 180.52H623.2V268H670.72ZM874.716 216.88C881.436 207.52 890.436 200.44 901.716 195.64C913.236 190.84 926.436 188.44 941.316 188.44V240.28C935.076 239.8 930.876 239.56 928.716 239.56C912.636 239.56 900.036 244.12 890.916 253.24C881.796 262.12 877.236 275.56 877.236 293.56V385H821.076V191.32H874.716V216.88ZM1065.11 387.88C1044.71 387.88 1026.35 383.68 1010.03 375.28C993.951 366.64 981.351 354.76 972.231 339.64C963.111 324.52 958.551 307.36 958.551 288.16C958.551 268.96 963.111 251.8 972.231 236.68C981.351 221.56 993.951 209.8 1010.03 201.4C1026.35 192.76 1044.71 188.44 1065.11 188.44C1085.51 188.44 1103.75 192.76 1119.83 201.4C1135.91 209.8 1148.51 221.56 1157.63 236.68C1166.75 251.8 1171.31 268.96 1171.31 288.16C1171.31 307.36 1166.75 324.52 1157.63 339.64C1148.51 354.76 1135.91 366.64 1119.83 375.28C1103.75 383.68 1085.51 387.88 1065.11 387.88ZM1065.11 341.8C1079.51 341.8 1091.27 337 1100.39 327.4C1109.75 317.56 1114.43 304.48 1114.43 288.16C1114.43 271.84 1109.75 258.88 1100.39 249.28C1091.27 239.44 1079.51 234.52 1065.11 234.52C1050.71 234.52 1038.83 239.44 1029.47 249.28C1020.11 258.88 1015.43 271.84 1015.43 288.16C1015.43 304.48 1020.11 317.56 1029.47 327.4C1038.83 337 1050.71 341.8 1065.11 341.8ZM1323.33 188.44C1341.33 188.44 1357.65 192.64 1372.29 201.04C1387.17 209.2 1398.81 220.84 1407.21 235.96C1415.61 250.84 1419.81 268.24 1419.81 288.16C1419.81 308.08 1415.61 325.6 1407.21 340.72C1398.81 355.6 1387.17 367.24 1372.29 375.64C1357.65 383.8 1341.33 387.88 1323.33 387.88C1296.69 387.88 1276.41 379.48 1262.49 362.68V385H1208.85V117.88H1265.01V211.84C1279.17 196.24 1298.61 188.44 1323.33 188.44ZM1313.61 341.8C1328.01 341.8 1339.77 337 1348.89 327.4C1358.25 317.56 1362.93 304.48 1362.93 288.16C1362.93 271.84 1358.25 258.88 1348.89 249.28C1339.77 239.44 1328.01 234.52 1313.61 234.52C1299.21 234.52 1287.33 239.44 1277.97 249.28C1268.85 258.88 1264.29 271.84 1264.29 288.16C1264.29 304.48 1268.85 317.56 1277.97 327.4C1287.33 337 1299.21 341.8 1313.61 341.8ZM1457.4 117.88H1513.56V385H1457.4V117.88ZM1755.41 288.88C1755.41 289.6 1755.05 294.64 1754.33 304H1607.81C1610.45 316 1616.69 325.48 1626.53 332.44C1636.37 339.4 1648.61 342.88 1663.25 342.88C1673.33 342.88 1682.21 341.44 1689.89 338.56C1697.81 335.44 1705.13 330.64 1711.85 324.16L1741.73 356.56C1723.49 377.44 1696.85 387.88 1661.81 387.88C1639.97 387.88 1620.65 383.68 1603.85 375.28C1587.05 366.64 1574.09 354.76 1564.97 339.64C1555.85 324.52 1551.29 307.36 1551.29 288.16C1551.29 269.2 1555.73 252.16 1564.61 237.04C1573.73 221.68 1586.09 209.8 1601.69 201.4C1617.53 192.76 1635.17 188.44 1654.61 188.44C1673.57 188.44 1690.73 192.52 1706.09 200.68C1721.45 208.84 1733.45 220.6 1742.09 235.96C1750.97 251.08 1755.41 268.72 1755.41 288.88ZM1654.97 230.92C1642.25 230.92 1631.57 234.52 1622.93 241.72C1614.29 248.92 1609.01 258.76 1607.09 271.24H1702.49C1700.57 259 1695.29 249.28 1686.65 242.08C1678.01 234.64 1667.45 230.92 1654.97 230.92ZM2040.84 188.44C2065.08 188.44 2084.28 195.64 2098.44 210.04C2112.84 224.2 2120.04 245.56 2120.04 274.12V385H2063.88V282.76C2063.88 267.4 2060.64 256 2054.16 248.56C2047.92 240.88 2038.92 237.04 2027.16 237.04C2013.96 237.04 2003.52 241.36 1995.84 250C1988.16 258.4 1984.32 271 1984.32 287.8V385H1928.16V282.76C1928.16 252.28 1915.92 237.04 1891.44 237.04C1878.48 237.04 1868.16 241.36 1860.48 250C1852.8 258.4 1848.96 271 1848.96 287.8V385H1792.8V191.32H1846.44V213.64C1853.64 205.48 1862.4 199.24 1872.71 194.92C1883.28 190.6 1894.8 188.44 1907.28 188.44C1920.96 188.44 1933.32 191.2 1944.36 196.72C1955.4 202 1964.28 209.8 1971 220.12C1978.92 210.04 1988.88 202.24 2000.88 196.72C2013.12 191.2 2026.44 188.44 2040.84 188.44ZM2345.02 337.48V385H2154.58V347.2L2251.78 255.4C2262.1 245.56 2269.06 237.16 2272.66 230.2C2276.26 223 2278.06 215.92 2278.06 208.96C2278.06 198.88 2274.58 191.2 2267.62 185.92C2260.9 180.4 2250.94 177.64 2237.74 177.64C2226.7 177.64 2216.74 179.8 2207.86 184.12C2198.98 188.2 2191.54 194.44 2185.54 202.84L2143.06 175.48C2152.9 160.84 2166.46 149.44 2183.74 141.28C2201.02 132.88 2220.82 128.68 2243.14 128.68C2261.86 128.68 2278.18 131.8 2292.1 138.04C2306.26 144.04 2317.18 152.68 2324.86 163.96C2332.78 175 2336.74 188.08 2336.74 203.2C2336.74 216.88 2333.86 229.72 2328.1 241.72C2322.34 253.72 2311.18 267.4 2294.62 282.76L2236.66 337.48H2345.02ZM2622.63 133L2513.55 385H2455.95L2347.23 133H2410.23L2486.91 313L2564.67 133H2622.63ZM2703.42 188.44C2733.42 188.44 2756.46 195.64 2772.54 210.04C2788.62 224.2 2796.66 245.68 2796.66 274.48V385H2744.1V360.88C2733.54 378.88 2713.86 387.88 2685.06 387.88C2670.18 387.88 2657.22 385.36 2646.18 380.32C2635.38 375.28 2627.1 368.32 2621.34 359.44C2615.58 350.56 2612.7 340.48 2612.7 329.2C2612.7 311.2 2619.42 297.04 2632.86 286.72C2646.54 276.4 2667.54 271.24 2695.86 271.24H2740.5C2740.5 259 2736.78 249.64 2729.34 243.16C2721.9 236.44 2710.74 233.08 2695.86 233.08C2685.54 233.08 2675.34 234.76 2665.26 238.12C2655.42 241.24 2647.02 245.56 2640.06 251.08L2619.9 211.84C2630.46 204.4 2643.06 198.64 2657.7 194.56C2672.58 190.48 2687.82 188.44 2703.42 188.44ZM2699.1 350.08C2708.7 350.08 2717.22 347.92 2724.66 343.6C2732.1 339.04 2737.38 332.44 2740.5 323.8V304H2701.98C2678.94 304 2667.42 311.56 2667.42 326.68C2667.42 333.88 2670.18 339.64 2675.7 343.96C2681.46 348.04 2689.26 350.08 2699.1 350.08ZM2847.48 117.88H2903.64V385H2847.48V117.88ZM3150.88 191.32V385H3097.6V361.96C3090.16 370.36 3081.28 376.84 3070.96 381.4C3060.64 385.72 3049.48 387.88 3037.48 387.88C3012.04 387.88 2991.88 380.56 2977 365.92C2962.12 351.28 2954.68 329.56 2954.68 300.76V191.32H3010.84V292.48C3010.84 323.68 3023.92 339.28 3050.08 339.28C3063.52 339.28 3074.32 334.96 3082.48 326.32C3090.64 317.44 3094.72 304.36 3094.72 287.08V191.32H3150.88ZM3392.63 288.88C3392.63 289.6 3392.27 294.64 3391.55 304H3245.03C3247.67 316 3253.91 325.48 3263.75 332.44C3273.59 339.4 3285.83 342.88 3300.47 342.88C3310.55 342.88 3319.43 341.44 3327.11 338.56C3335.03 335.44 3342.35 330.64 3349.07 324.16L3378.95 356.56C3360.71 377.44 3334.07 387.88 3299.03 387.88C3277.19 387.88 3257.87 383.68 3241.07 375.28C3224.27 366.64 3211.31 354.76 3202.19 339.64C3193.07 324.52 3188.51 307.36 3188.51 288.16C3188.51 269.2 3192.95 252.16 3201.83 237.04C3210.95 221.68 3223.31 209.8 3238.91 201.4C3254.75 192.76 3272.39 188.44 3291.83 188.44C3310.79 188.44 3327.95 192.52 3343.31 200.68C3358.67 208.84 3370.67 220.6 3379.31 235.96C3388.19 251.08 3392.63 268.72 3392.63 288.88ZM3292.19 230.92C3279.47 230.92 3268.79 234.52 3260.15 241.72C3251.51 248.92 3246.23 258.76 3244.31 271.24H3339.71C3337.79 259 3332.51 249.28 3323.87 242.08C3315.23 234.64 3304.67 230.92 3292.19 230.92Z" fill="#264653"/>
</g>
<defs>
<clipPath id="clip0">
<rect width="3400" height="512" fill="white"/>
</clipPath>
</defs>
</svg>
